<?xml version="1.0" standalone="no"?>
<!DOCTYPE svg PUBLIC "-//W3C//DTD SVG 20010904//EN"
 "http://www.w3.org/TR/2001/REC-SVG-20010904/DTD/svg10.dtd">
<svg version="1.0" xmlns="http://www.w3.org/2000/svg"
 width="484.000000pt" height="484.000000pt" viewBox="0 0 484.000000 484.000000"
 preserveAspectRatio="xMidYMid meet">
<metadata>
Created by potrace 1.14, written by Peter Selinger 2001-2017
</metadata>
<g transform="translate(0.000000,484.000000) scale(0.100000,-0.100000)"
fill="#000000" stroke="none">
<path d="M1945 4720 c3 -5 8 -10 11 -10 2 0 4 5 4 10 0 6 -5 10 -11 10 -5 0
-7 -4 -4 -10z"/>
<path d="M2820 4709 c0 -5 -5 -7 -11 -3 -8 5 -8 1 0 -12 27 -47 28 -48 51 -26
13 12 20 27 17 36 -7 18 -57 22 -57 5z"/>
<path d="M2191 4630 c-10 -16 -21 -28 -24 -25 -4 3 -3 -1 3 -7 5 -7 10 -31 10
-55 0 -41 -1 -42 -42 -53 -160 -41 -315 -110 -403 -178 -166 -129 -266 -288
-316 -502 -14 -61 -18 -328 -7 -427 5 -41 4 -63 -3 -63 -6 0 -7 -4 -4 -10 3
-5 0 -10 -7 -10 -9 0 -9 -3 2 -10 10 -6 11 -10 3 -10 -8 0 -13 -15 -13 -40 0
-46 -23 -110 -40 -110 -6 0 -9 -8 -6 -17 8 -25 -9 -51 -17 -28 -5 10 -3 14 5
9 7 -4 8 -3 4 4 -10 16 -26 15 -26 -2 0 -8 -7 -17 -16 -20 -9 -3 -12 -11 -8
-18 5 -8 2 -9 -10 -5 -10 4 -32 7 -51 7 -25 0 -34 5 -40 23 l-8 22 -4 -22 c-4
-21 -9 -22 -62 -18 -31 3 -81 14 -110 24 -63 22 -97 17 -161 -25 -25 -15 -47
-29 -50 -30 -22 -5 -60 -25 -67 -36 -4 -7 -38 -39 -74 -70 -36 -31 -66 -63
-67 -70 -2 -28 -27 -104 -38 -115 -6 -7 -15 -9 -19 -5 -4 4 -5 0 -3 -8 3 -8
11 -14 18 -12 6 1 10 -1 8 -5 -27 -53 -41 -94 -42 -123 -1 -19 -3 -87 -4 -150
-2 -79 -5 -110 -12 -100 -8 12 -10 11 -10 -7 0 -13 -4 -23 -8 -23 -5 0 -8 -10
-8 -22 1 -14 -4 -22 -12 -20 -8 1 -11 -2 -7 -8 3 -6 12 -7 18 -4 7 4 9 4 5 0
-4 -5 -3 -19 2 -32 6 -14 6 -26 0 -29 -6 -4 -10 3 -10 14 0 12 -3 21 -7 21
-17 0 -30 -18 -55 -75 -57 -130 -72 -252 -42 -341 9 -26 18 -59 21 -73 2 -14
8 -28 12 -31 4 -3 14 -16 21 -29 11 -21 10 -23 -4 -18 -9 4 -16 2 -16 -3 0 -6
7 -10 15 -10 8 0 15 -7 15 -15 0 -14 29 -54 60 -82 53 -48 86 -73 97 -73 7 0
19 -24 27 -52 19 -67 65 -224 76 -261 8 -26 7 -27 -18 -21 -15 4 -31 9 -37 13
-11 6 -17 7 -54 9 -24 2 -24 2 -5 17 17 13 16 14 -14 4 -18 -6 -46 -9 -62 -7
-16 2 -27 1 -24 -4 3 -4 -8 -8 -24 -8 -37 0 -119 -28 -154 -52 -15 -10 -32
-17 -39 -16 -7 2 -13 -1 -14 -7 0 -5 -22 -32 -48 -60 -43 -45 -47 -54 -45 -90
3 -39 4 -40 38 -37 28 2 32 0 22 -10 -7 -7 -20 -13 -29 -13 -9 0 -18 -6 -21
-14 -3 -8 0 -11 6 -7 5 3 12 0 15 -7 3 -8 31 -26 64 -42 32 -15 70 -36 85 -47
37 -26 48 -23 49 15 1 19 3 24 6 12 2 -11 6 -30 9 -42 2 -13 10 -23 18 -23 7
0 19 -7 26 -15 7 -8 20 -15 30 -15 20 0 67 -23 129 -62 24 -15 48 -25 53 -22
4 3 11 -1 14 -9 3 -8 16 -15 28 -15 13 0 36 -6 52 -15 16 -8 45 -23 64 -33 19
-10 37 -20 40 -23 7 -8 70 -32 100 -38 14 -3 33 -14 42 -24 18 -18 77 -39 111
-39 9 0 17 -4 17 -9 0 -5 15 -12 33 -16 17 -4 48 -16 66 -27 21 -12 53 -20 80
-20 25 0 52 -4 58 -10 9 -7 13 -7 13 0 0 6 7 9 15 6 8 -4 12 -10 9 -15 -3 -5
4 -9 15 -9 33 0 51 -11 51 -32 0 -10 -4 -17 -9 -13 -5 3 -12 1 -15 -4 -4 -5
-1 -13 5 -16 15 -10 67 42 81 82 7 18 16 33 20 33 4 0 8 5 8 10 0 6 -7 10 -16
10 -9 0 -14 6 -11 13 2 6 -5 22 -16 34 -31 35 -16 36 34 4 104 -68 126 -83
169 -115 25 -19 53 -35 63 -35 10 -1 20 -7 23 -15 3 -8 19 -18 35 -21 16 -4
31 -11 34 -16 4 -5 15 -9 26 -9 11 0 36 -8 57 -18 38 -19 154 -52 254 -72 82
-16 270 -14 358 5 85 18 208 53 230 66 60 35 92 49 113 49 14 0 46 17 73 39
27 21 65 43 84 50 33 11 90 74 90 100 0 6 4 11 8 11 5 0 17 17 26 38 9 20 29
51 44 68 99 114 129 151 154 190 15 24 31 44 35 44 5 0 8 17 8 37 0 30 4 39
20 41 13 2 25 15 31 35 6 18 23 66 38 107 73 207 79 245 79 535 0 212 -3 252
-23 340 -12 55 -26 126 -31 158 -5 32 -16 72 -25 89 -9 17 -29 68 -45 112 -15
45 -37 99 -48 121 -12 21 -21 45 -21 52 0 7 -20 21 -43 32 -24 11 -50 27 -57
36 -7 8 -20 15 -30 15 -20 0 -117 31 -173 55 -48 20 -130 94 -123 111 7 19
-26 23 -46 6 -15 -12 -17 -12 -16 4 1 13 10 20 27 21 28 1 95 20 128 35 12 6
29 8 38 4 9 -3 13 -2 10 4 -4 6 7 13 24 16 17 4 43 18 58 32 16 14 42 36 60
48 61 41 91 71 132 131 22 33 41 65 41 70 0 16 41 54 51 48 5 -4 9 2 9 12 0
11 4 23 9 29 4 5 14 32 21 59 7 28 19 69 26 93 18 54 10 312 -12 421 -14 69
-51 159 -104 250 -23 41 -20 48 26 57 38 7 54 28 35 47 -6 6 -11 18 -11 27 0
31 -34 50 -86 50 -50 0 -50 0 -154 102 -57 56 -96 99 -87 95 11 -4 17 -1 17 9
0 12 -4 12 -20 4 -16 -9 -28 -4 -68 24 -27 19 -68 44 -91 55 -23 12 -39 26
-36 30 9 15 -24 33 -49 27 -14 -3 -30 -1 -38 6 -7 7 -19 13 -25 14 -45 4 -48
4 -36 12 8 5 -2 8 -24 8 -20 0 -38 5 -40 11 -3 7 -10 10 -17 7 -7 -3 -26 1
-42 7 -16 7 -33 11 -38 10 -5 -1 -32 3 -60 10 -28 7 -69 13 -91 13 -22 1 -70
3 -107 4 -53 2 -68 5 -68 17 0 25 -38 55 -70 55 -23 0 -35 -7 -49 -30z m744
-160 c8 -13 -15 -13 -35 0 -12 8 -11 10 7 10 12 0 25 -4 28 -10z m555 -1324
c0 -2 -7 -7 -16 -10 -8 -3 -12 -2 -9 4 6 10 25 14 25 6z m-2174 -91 c0 -26
-21 -30 -21 -4 -1 11 10 26 21 29 0 0 0 -11 0 -25z m-849 -921 c-3 -3 -12 -4
-19 -1 -8 3 -5 6 6 6 11 1 17 -2 13 -5z m-23 -96 c-4 -29 -10 -55 -13 -58 -4
-3 -8 -21 -10 -40 -3 -41 -8 -47 -21 -34 -11 11 8 84 22 84 5 0 9 12 8 28 -4
49 0 72 10 72 7 0 8 -19 4 -52z m10 -218 c5 -8 6 -12 1 -7 -4 4 -17 -5 -28
-20 -15 -23 -17 -24 -12 -6 4 15 0 25 -12 33 -17 11 -17 11 1 6 13 -5 17 -2
13 8 -3 8 -1 17 6 19 7 2 14 -1 16 -7 2 -6 9 -18 15 -26z m20 -35 c3 -8 1 -15
-4 -15 -6 0 -10 7 -10 15 0 8 2 15 4 15 2 0 6 -7 10 -15z m-34 -100 c7 -9 10
-19 6 -23 -6 -6 -30 23 -31 38 0 3 -4 11 -9 18 -4 7 -4 21 0 30 5 13 8 10 14
-15 4 -18 13 -40 20 -48z"/>
<path d="M3140 4451 c0 -5 5 -13 10 -16 6 -3 10 -2 10 4 0 5 -4 13 -10 16 -5
3 -10 2 -10 -4z"/>
<path d="M2978 4443 c7 -3 16 -2 19 1 4 3 -2 6 -13 5 -11 0 -14 -3 -6 -6z"/>
<path d="M3016 4433 c-6 -14 -5 -15 5 -6 7 7 10 15 7 18 -3 3 -9 -2 -12 -12z"/>
<path d="M3100 4446 c0 -2 8 -10 18 -17 15 -13 16 -12 3 4 -13 16 -21 21 -21
13z"/>
<path d="M3180 4320 c0 -11 4 -20 9 -20 6 0 9 9 8 20 -1 11 -5 20 -9 20 -4 0
-8 -9 -8 -20z"/>
<path d="M1270 3259 c0 -15 18 -19 23 -6 3 8 -1 14 -9 14 -8 0 -14 -4 -14 -8z"/>
<path d="M3440 3050 c-9 -6 -10 -10 -3 -10 6 0 15 5 18 10 8 12 4 12 -15 0z"/>
<path d="M4692 2535 c0 -16 2 -22 5 -12 2 9 2 23 0 30 -3 6 -5 -1 -5 -18z"/>
<path d="M482 2440 c0 -19 2 -27 5 -17 2 9 2 25 0 35 -3 9 -5 1 -5 -18z"/>
<path d="M4693 2400 c0 -30 2 -43 4 -27 2 15 2 39 0 55 -2 15 -4 2 -4 -28z"/>
<path d="M4692 2060 c0 -19 2 -27 5 -17 2 9 2 25 0 35 -3 9 -5 1 -5 -18z"/>
<path d="M300 2026 c0 -2 8 -10 18 -17 15 -13 16 -12 3 4 -13 16 -21 21 -21
13z"/>
<path d="M4689 1858 c-3 -52 1 -201 5 -206 3 -3 6 45 6 106 0 62 -2 112 -5
112 -3 0 -5 -6 -6 -12z"/>
<path d="M322 1820 c0 -14 2 -19 5 -12 2 6 2 18 0 25 -3 6 -5 1 -5 -13z"/>
<path d="M154 1708 l-19 -23 23 19 c21 18 27 26 19 26 -2 0 -12 -10 -23 -22z"/>
<path d="M285 1640 c-3 -5 -1 -10 4 -10 6 0 11 5 11 10 0 6 -2 10 -4 10 -3 0
-8 -4 -11 -10z"/>
<path d="M231 1347 c-13 -21 -12 -21 5 -5 10 10 16 20 13 22 -3 3 -11 -5 -18
-17z"/>
<path d="M580 1260 c0 -5 5 -10 11 -10 5 0 7 5 4 10 -3 6 -8 10 -11 10 -2 0
-4 -4 -4 -10z"/>
<path d="M4689 1268 c-6 -13 -3 -222 3 -231 4 -7 8 43 8 111 0 101 -3 137 -11
120z"/>
<path d="M631 1223 c11 -12 7 -15 -17 -12 -4 0 -10 -5 -15 -12 -11 -18 50 -44
65 -29 8 8 6 9 -5 5 -21 -8 -35 13 -20 28 16 16 14 34 -4 34 -11 0 -12 -4 -4
-14z"/>
<path d="M4685 980 c-3 -5 -1 -10 4 -10 6 0 11 5 11 10 0 6 -2 10 -4 10 -3 0
-8 -4 -11 -10z"/>
<path d="M4680 920 c0 -5 5 -10 10 -10 6 0 10 5 10 10 0 6 -4 10 -10 10 -5 0
-10 -4 -10 -10z"/>
<path d="M4680 879 c0 -5 5 -7 10 -4 6 3 10 8 10 11 0 2 -4 4 -10 4 -5 0 -10
-5 -10 -11z"/>
<path d="M4680 589 c0 -11 4 -18 10 -14 5 3 7 12 3 20 -7 21 -13 19 -13 -6z"/>
<path d="M1745 249 c-4 -6 -4 -13 -1 -16 3 -4 6 -1 6 6 0 7 5 9 12 5 7 -4 8
-3 4 4 -9 15 -13 15 -21 1z"/>
<path d="M4680 221 c0 -12 5 -21 10 -21 6 0 10 6 10 14 0 8 -4 18 -10 21 -5 3
-10 -3 -10 -14z"/>
<path d="M4685 161 c-3 -5 -2 -12 3 -15 5 -3 9 1 9 9 0 17 -3 19 -12 6z"/>
<path d="M1757 109 c7 -7 15 -10 18 -7 3 3 -2 9 -12 12 -14 6 -15 5 -6 -5z"/>
<path d="M4680 86 c0 -14 5 -26 10 -26 6 0 10 9 10 19 0 11 -4 23 -10 26 -6 4
-10 -5 -10 -19z"/>
<path d="M2375 50 c-3 -6 1 -7 9 -4 18 7 21 14 7 14 -6 0 -13 -4 -16 -10z"/>
<path d="M2505 50 c-3 -6 1 -7 9 -4 18 7 21 14 7 14 -6 0 -13 -4 -16 -10z"/>
<path d="M2275 40 c-13 -6 -6 -7 24 -5 24 2 45 6 47 8 8 8 -51 5 -71 -3z"/>
<path d="M975 30 c-9 -15 3 -30 20 -24 7 3 11 12 8 20 -6 16 -19 18 -28 4z"/>
<path d="M1100 30 c0 -5 5 -10 10 -10 6 0 10 5 10 10 0 6 -4 10 -10 10 -5 0
-10 -4 -10 -10z"/>
<path d="M2175 29 c-5 -6 -32 -8 -74 -5 l-66 5 58 -11 c42 -7 65 -7 80 0 12 6
33 13 47 15 21 4 20 5 -7 6 -17 0 -35 -4 -38 -10z"/>
<path d="M2345 20 c-7 -12 12 -12 40 0 18 8 17 9 -7 9 -15 1 -30 -3 -33 -9z"/>
<path d="M2660 20 c0 -5 5 -10 11 -10 5 0 7 5 4 10 -3 6 -8 10 -11 10 -2 0 -4
-4 -4 -10z"/>
<path d="M910 9 c0 -5 5 -7 10 -4 6 3 10 8 10 11 0 2 -4 4 -10 4 -5 0 -10 -5
-10 -11z"/>
<path d="M1140 10 c0 -5 5 -10 10 -10 6 0 10 5 10 10 0 6 -4 10 -10 10 -5 0
-10 -4 -10 -10z"/>
<path d="M2216 12 c-3 -5 23 -9 57 -10 48 0 55 2 32 8 -42 11 -83 12 -89 2z"/>
<path d="M3297 9 c7 -7 15 -10 18 -7 3 3 -2 9 -12 12 -14 6 -15 5 -6 -5z"/>
<path d="M3470 10 c8 -5 20 -10 25 -10 6 0 3 5 -5 10 -8 5 -19 10 -25 10 -5 0
-3 -5 5 -10z"/>
<path d="M3540 6 c7 -7 13 -7 20 0 6 6 3 10 -10 10 -13 0 -16 -4 -10 -10z"/>
<path d="M3645 10 c-3 -5 -1 -10 4 -10 6 0 11 5 11 10 0 6 -2 10 -4 10 -3 0
-8 -4 -11 -10z"/>
<path d="M3698 8 c5 -5 16 -8 23 -6 8 3 3 7 -10 11 -17 4 -21 3 -13 -5z"/>
<path d="M3775 10 c3 -5 11 -10 16 -10 6 0 7 5 4 10 -3 6 -11 10 -16 10 -6 0
-7 -4 -4 -10z"/>
<path d="M3840 8 c0 -4 9 -8 20 -8 11 0 20 4 20 8 0 4 -9 8 -20 8 -11 0 -20
-4 -20 -8z"/>
<path d="M3897 9 c7 -7 15 -10 18 -7 3 3 -2 9 -12 12 -14 6 -15 5 -6 -5z"/>
<path d="M3957 9 c7 -7 15 -10 18 -7 3 3 -2 9 -12 12 -14 6 -15 5 -6 -5z"/>
<path d="M1863 3 c9 -2 23 -2 30 0 6 3 -1 5 -18 5 -16 0 -22 -2 -12 -5z"/>
<path d="M2388 3 c7 -3 16 -2 19 1 4 3 -2 6 -13 5 -11 0 -14 -3 -6 -6z"/>
</g>
</svg>
